HIERARCHY
ROOT Hips
{
	OFFSET 45.888302 -7.645636 96.561798
	CHANNELS 6 Xposition Yposition Zposition Xrotation Yrotation Zrotation
	JOINT spine
	{
		OFFSET 0.000000 -0.458069 7.965683
		CHANNELS 3 Xrotation Yrotation Zrotation
		JOINT spine1
		{
			OFFSET 0.000000 -0.000002 10.243103
			CHANNELS 3 Xrotation Yrotation Zrotation
			JOINT spine2
			{
				OFFSET 0.000000 -0.000001 9.814751
				CHANNELS 3 Xrotation Yrotation Zrotation
				JOINT Neck
				{
					OFFSET 0.000000 -1.201385 25.198601
					CHANNELS 3 Xrotation Yrotation Zrotation
					JOINT Head
					{
						OFFSET 0.000000 -0.000001 7.613144
						CHANNELS 3 Xrotation Yrotation Zrotation
						End Site
						{
							OFFSET 0.000000 6.077327 18.428101
						}
					}
				}
				JOINT RightShoulder
				{
					OFFSET -4.132702 0.575449 10.599205
					CHANNELS 3 Xrotation Yrotation Zrotation
					JOINT RightArm
					{
						OFFSET 0.000000 -0.000002 13.901794
						CHANNELS 3 Xrotation Yrotation Zrotation
						JOINT RightArmRoll
						{
							OFFSET 0.000000 -0.000001 7.017883
							CHANNELS 3 Xrotation Yrotation Zrotation
							JOINT RightForeArm
							{
								OFFSET 0.000000 -0.000003 20.440598
								CHANNELS 3 Xrotation Yrotation Zrotation
								JOINT RightForeArmRoll
								{
									OFFSET 0.000000 -0.000001 7.875168
									CHANNELS 3 Xrotation Yrotation Zrotation
									JOINT RightHand
									{
										OFFSET 0.000000 -0.000002 15.803696
										CHANNELS 3 Xrotation Yrotation Zrotation
										End Site
										{
											OFFSET 0.000000 0.000000 0.100006
										}
									}
								}
							}
						}
					}
				}
				JOINT LeftShoulder
				{
					OFFSET 4.132702 0.575449 10.599205
					CHANNELS 3 Xrotation Yrotation Zrotation
					JOINT LeftArm
					{
						OFFSET 0.000000 -0.000002 13.901794
						CHANNELS 3 Xrotation Yrotation Zrotation
						JOINT LeftArmRoll
						{
							OFFSET 0.000000 -0.000001 7.017883
							CHANNELS 3 Xrotation Yrotation Zrotation
							JOINT LeftForeArm
							{
								OFFSET 0.000000 -0.000003 20.440598
								CHANNELS 3 Xrotation Yrotation Zrotation
								JOINT LeftForeArmRoll
								{
									OFFSET 0.000000 -0.000001 7.875153
									CHANNELS 3 Xrotation Yrotation Zrotation
									JOINT LeftHand
									{
										OFFSET 0.000000 -0.000002 15.803696
										CHANNELS 3 Xrotation Yrotation Zrotation
										End Site
										{
											OFFSET 0.000000 0.000000 0.100006
										}
									}
								}
							}
						}
					}
				}
			}
		}
	}
	JOINT RightUpLeg
	{
		OFFSET -7.060482 1.086100 -1.294701
		CHANNELS 3 Xrotation Yrotation Zrotation
		JOINT RightUpLegRoll
		{
			OFFSET 0.000000 -0.000003 18.530800
			CHANNELS 3 Xrotation Yrotation Zrotation
			JOINT RightLeg
			{
				OFFSET 0.000000 0.000004 -22.947601
				CHANNELS 3 Xrotation Yrotation Zrotation
				JOINT RightLegRoll
				{
					OFFSET 0.000000 -0.000004 23.022598
					CHANNELS 3 Xrotation Yrotation Zrotation
					JOINT RightFoot
					{
						OFFSET 0.000000 -0.000003 19.162506
						CHANNELS 3 Xrotation Yrotation Zrotation
						JOINT RightToeBase
						{
							OFFSET 0.000000 -0.000003 16.018799
							CHANNELS 3 Xrotation Yrotation Zrotation
							End Site
							{
								OFFSET 0.006790 0.894205 7.757812
							}
						}
					}
				}
			}
		}
	}
	JOINT LeftUpLeg
	{
		OFFSET 7.060482 1.086100 -1.294701
		CHANNELS 3 Xrotation Yrotation Zrotation
		JOINT LeftUpLegRoll
		{
			OFFSET 0.000000 -0.000003 18.530899
			CHANNELS 3 Xrotation Yrotation Zrotation
			JOINT LeftLeg
			{
				OFFSET 0.000000 -0.000004 22.947502
				CHANNELS 3 Xrotation Yrotation Zrotation
				JOINT LeftLegRoll
				{
					OFFSET 0.000000 -0.000004 23.235504
					CHANNELS 3 Xrotation Yrotation Zrotation
					JOINT LeftFoot
					{
						OFFSET 0.000000 -0.000003 18.949600
						CHANNELS 3 Xrotation Yrotation Zrotation
						JOINT LeftToeBase
						{
							OFFSET 0.000000 -0.000003 16.018799
							CHANNELS 3 Xrotation Yrotation Zrotation
							End Site
							{
								OFFSET -0.030430 0.894205 7.757812
							}
						}
					}
				}
			}
		}
	}
}
MOTION
Frames: 5
Frame Time: 0.041667
55.514397 -5.560170 96.713997 -4.629879 0.021649 1.816923 -0.338180 -0.228165 -0.250416 3.325549 -0.439515 -0.499827 4.970622 -0.445487 -0.494314 8.839884 -0.398285 4.290761 11.695782 0.459660 4.317224 -16.631453 -74.403006 -19.862036 -71.929508 -110.610091 -60.505306 -0.000001 -0.000001 0.000000 16.467849 -6.872324 -0.035542 -0.000011 0.000002 -3.000000 -5.000217 -7.999144 0.000119 -6.534179 62.868743 8.031408 -45.162550 116.356903 42.223044 0.000004 -0.000004 -0.000000 11.775623 8.898393 -0.096299 -0.000000 0.000001 3.000001 -5.000210 7.998873 -0.000131 3.582420 -176.081635 3.526891 -179.999991 0.000005 -1.304998 171.972197 -0.412918 -0.598239 -0.000004 0.000001 0.080307 68.518655 6.968486 1.970307 25.464374 -7.346375 0.011002 4.140812 173.769179 -3.804082 -0.000020 -0.000004 -1.228449 -5.291449 3.348293 0.267490 -0.000003 0.000004 -0.064589 68.493649 -6.934008 -2.048516 25.456914 7.349882 0.000004 
55.501801 -5.566502 96.711502 -4.623631 0.027954 1.804251 -0.335095 -0.228672 -0.250740 3.331720 -0.441865 -0.500506 4.976783 -0.447844 -0.494979 8.801434 -0.377263 4.289712 11.654868 0.452950 4.316502 -16.603934 -74.392173 -19.831978 -71.886874 -110.619988 -60.485710 -0.000000 -0.000000 0.000000 16.495230 -6.882682 -0.032184 -0.000010 0.000003 -3.000001 -5.000215 -7.999143 0.000119 -6.552330 62.853743 8.051189 -45.142165 116.355141 42.221907 0.000003 -0.000003 -0.000000 11.840114 8.907051 -0.101881 0.000000 0.000001 3.000000 -5.000213 7.998874 -0.000130 3.545130 -176.105445 3.496493 -179.999991 0.000005 -1.304998 171.921244 -0.388103 -0.600091 -0.000003 0.000001 0.080257 68.510540 6.968482 1.970719 25.470226 -7.346357 0.019830 4.119685 173.754057 -3.817950 -0.000020 -0.000004 -1.228500 -5.325752 3.356461 0.269918 -0.000003 0.000004 -0.065082 68.500807 -6.933996 -2.048562 25.456907 7.349881 0.000004 
55.505196 -5.570242 96.712997 -4.618398 0.034417 1.791220 -0.331842 -0.229160 -0.250964 3.338222 -0.444244 -0.501005 4.983286 -0.450228 -0.495466 8.763322 -0.356816 4.288714 11.614055 0.446520 4.315788 -16.577108 -74.381587 -19.802701 -71.845735 -110.629933 -60.467781 -0.000001 -0.000001 -0.000000 16.523225 -6.893251 -0.028719 -0.000010 0.000003 -3.000000 -5.000217 -7.999144 0.000117 -6.570374 62.838642 8.070844 -45.121452 116.353242 42.221494 0.000002 -0.000003 -0.000001 11.904946 8.916672 -0.107653 -0.000000 0.000001 3.000000 -5.000211 7.998874 -0.000131 3.509667 -176.129255 3.465518 -179.999991 0.000005 -1.304998 171.871301 -0.363308 -0.601895 -0.000003 0.000001 0.080182 68.502631 6.968456 1.971211 25.475072 -7.346309 0.027005 4.100436 173.738948 -3.832453 -0.000020 -0.000003 -1.228580 -5.358995 3.364891 0.272313 -0.000003 0.000004 -0.065558 68.507863 -6.933971 -2.048615 25.456904 7.349882 0.000005 
55.491699 -5.554604 96.708603 -4.613892 0.040991 1.777938 -0.328469 -0.229633 -0.251119 3.344951 -0.446643 -0.501379 4.990026 -0.452629 -0.495828 8.725463 -0.336774 4.287776 11.573348 0.440289 4.315065 -16.550882 -74.371273 -19.774052 -71.805307 -110.639700 -60.450821 -0.000001 -0.000000 0.000001 16.551632 -6.903967 -0.025177 -0.000010 0.000003 -3.000001 -5.000215 -7.999143 0.000118 -6.588336 62.823452 8.090385 -45.100733 116.351357 42.221774 0.000004 -0.000002 -0.000001 11.970205 8.926938 -0.113577 -0.000001 0.000001 3.000001 -5.000211 7.998874 -0.000130 3.475482 -176.153079 3.434159 -179.999991 0.000006 -1.304998 171.822056 -0.337531 -0.602511 -0.000003 0.000000 0.080091 68.494824 6.968472 1.971609 25.479006 -7.346263 0.033007 4.082509 173.723826 -3.847390 -0.000020 -0.000004 -1.228670 -5.391509 3.373513 0.274689 -0.000003 0.000004 -0.066023 68.514816 -6.933978 -2.048781 25.456906 7.349880 0.000004 
55.488499 -5.561997 96.711609 -4.609782 0.047628 1.764520 -0.325031 -0.230099 -0.251234 3.351824 -0.449054 -0.501681 4.996889 -0.455041 -0.496118 8.687733 -0.316962 4.286873 11.532540 0.434171 4.314352 -16.524997 -74.361130 -19.745788 -71.765269 -110.649543 -60.434258 -0.000000 -0.000000 0.000000 16.580243 -6.914763 -0.021591 -0.000009 0.000003 -3.000000 -5.000217 -7.999142 0.000119 -6.606214 62.808152 8.109823 -45.081284 116.348693 42.223912 0.000004 -0.000002 -0.000001 12.035486 8.937600 -0.119566 0.000000 0.000001 3.000001 -5.000213 7.998874 -0.000131 3.442029 -176.177886 3.402517 -179.999991 0.000006 -1.304998 171.773247 -0.310775 -0.603936 -0.000004 0.000001 0.079989 68.487031 6.968486 1.972102 25.482643 -7.346196 0.038365 4.065321 173.708731 -3.862589 -0.000020 -0.000004 -1.228770 -5.423595 3.382226 0.277055 -0.000003 0.000004 -0.066481 68.521769 -6.933985 -2.048845 25.456906 7.349882 0.000004 
